<?xml version="1.0" encoding="UTF-8" standalone="no"?>
<!-- Created with Inkscape (http://www.inkscape.org/) -->

<svg
   width="256"
   height="256"
   viewBox="0 0 67.733333 67.733331"
   version="1.1"
   id="svg1"
   xml:space="preserve"
   inkscape:version="1.3 (0e150ed6c4, 2023-07-21)"
   sodipodi:docname="pwdmailerlogo.svg"
   xmlns:inkscape="http://www.inkscape.org/namespaces/inkscape"
   xmlns:sodipodi="http://sodipodi.sourceforge.net/DTD/sodipodi-0.dtd"
   xmlns="http://www.w3.org/2000/svg"
   xmlns:svg="http://www.w3.org/2000/svg"><sodipodi:namedview
     id="namedview1"
     pagecolor="#ffffff"
     bordercolor="#000000"
     borderopacity="0.25"
     inkscape:showpageshadow="2"
     inkscape:pageopacity="0.0"
     inkscape:pagecheckerboard="0"
     inkscape:deskcolor="#d1d1d1"
     inkscape:document-units="mm"
     inkscape:zoom="1.8137767"
     inkscape:cx="155.20103"
     inkscape:cy="85.181381"
     inkscape:window-width="1360"
     inkscape:window-height="705"
     inkscape:window-x="-8"
     inkscape:window-y="-8"
     inkscape:window-maximized="1"
     inkscape:current-layer="layer1" /><defs
     id="defs1" /><g
     inkscape:label="Capa 1"
     inkscape:groupmode="layer"
     id="layer1"><g
       style="opacity:1;fill:#a5c7ff;fill-opacity:1;fill-rule:nonzero;stroke:none;stroke-width:0;stroke-linecap:butt;stroke-linejoin:miter;stroke-miterlimit:10;stroke-dasharray:none;stroke-opacity:1"
       transform="matrix(0.74347917,0,0,0.74347917,0.41010402,0.41010402)"
       id="g1">&#10;	<path
   d="M 45,0 C 20.187,0 0,20.187 0,45 0,69.813 20.187,90 45,90 69.813,90 90,69.813 90,45 90,20.187 69.813,0 45,0 Z M 4.051,47 H 20.07 c 0.142,6.123 0.934,11.89 2.255,17.096 H 8.735 C 6.011,58.944 4.348,53.149 4.051,47 Z M 47,21.905 V 4.2 c 6.216,1.214 11.734,8.007 15.192,17.705 H 47 Z m 16.455,4 C 64.89,31.084 65.772,36.89 65.931,43 H 47 V 25.905 Z M 43,4.2 V 21.905 H 27.809 C 31.266,12.207 36.784,5.414 43,4.2 Z m 0,21.705 V 43 H 24.069 C 24.228,36.89 25.11,31.084 26.545,25.905 Z M 20.07,43 H 4.051 C 4.348,36.851 6.011,31.056 8.735,25.905 h 13.59 C 21.003,31.11 20.211,36.877 20.07,43 Z m 3.999,4 H 43 V 64.096 H 26.545 C 25.111,58.917 24.228,53.111 24.069,47 Z M 43,68.096 V 85.8 C 36.784,84.586 31.267,77.793 27.809,68.095 H 43 Z M 47,85.8 V 68.096 H 62.192 C 58.734,77.793 53.216,84.586 47,85.8 Z M 47,64.096 V 47 H 65.931 C 65.772,53.111 64.89,58.917 63.455,64.096 Z M 69.931,47 h 16.018 c -0.297,6.149 -1.96,11.944 -4.684,17.096 H 67.676 C 68.997,58.89 69.789,53.123 69.931,47 Z m 0,-4 C 69.789,36.877 68.997,31.11 67.676,25.905 H 81.265 C 83.989,31.057 85.652,36.851 85.949,43 Z M 78.855,21.905 H 66.523 C 64.37,15.292 61.304,9.818 57.614,5.994 66.331,8.82 73.779,14.487 78.855,21.905 Z M 32.386,5.994 c -3.689,3.824 -6.755,9.298 -8.909,15.911 H 11.145 C 16.221,14.487 23.669,8.82 32.386,5.994 Z m -21.24,62.102 h 12.332 c 2.153,6.612 5.219,12.086 8.909,15.911 C 23.669,81.18 16.222,75.513 11.146,68.096 Z m 46.468,15.91 c 3.689,-3.824 6.756,-9.298 8.909,-15.91 H 78.855 C 73.778,75.513 66.331,81.18 57.614,84.006 Z"
   style="opacity:1;fill:#a5c7ff;fill-opacity:1;fill-rule:nonzero;stroke:none;stroke-width:0;stroke-linecap:butt;stroke-linejoin:miter;stroke-miterlimit:10;stroke-dasharray:none;stroke-opacity:1"
   stroke-linecap="round"
   id="path1" />&#10;</g><text
       xml:space="preserve"
       style="font-size:31.75px;font-family:Arial;-inkscape-font-specification:Arial;opacity:1;fill:#2228e2;fill-opacity:1;stroke:none;stroke-width:0.4;stroke-dasharray:none;stroke-opacity:1"
       x="1.4498881"
       y="35.540874"
       id="text1"><tspan
         sodipodi:role="line"
         style="font-style:normal;font-variant:normal;font-weight:normal;font-stretch:normal;font-size:31.75px;font-family:'BD Megalona DEMO Personal Use Only';-inkscape-font-specification:'BD Megalona DEMO Personal Use Only';fill:#2228e2;fill-opacity:1;stroke:#ffffff;stroke-width:0.4;stroke-linecap:butt;stroke-linejoin:miter;stroke-dasharray:none;stroke-opacity:1;paint-order:fill markers stroke"
         x="1.4498881"
         y="35.540874"
         id="tspan2">PWD</tspan></text><text
       xml:space="preserve"
       style="font-style:normal;font-variant:normal;font-weight:normal;font-stretch:normal;font-size:19.7556px;font-family:'BD Megalona DEMO Personal Use Only';-inkscape-font-specification:'BD Megalona DEMO Personal Use Only';opacity:1;fill:#364bd0;fill-opacity:1;stroke:#ffffff;stroke-width:0.2;stroke-linecap:butt;stroke-linejoin:miter;stroke-dasharray:none;stroke-opacity:1;paint-order:fill markers stroke"
       x="8.3819427"
       y="50.435341"
       id="text3"><tspan
         sodipodi:role="line"
         id="tspan3"
         style="font-style:normal;font-variant:normal;font-weight:normal;font-stretch:normal;font-family:'BD Megalona DEMO Personal Use Only';-inkscape-font-specification:'BD Megalona DEMO Personal Use Only';fill:#364bd0;fill-opacity:1;stroke:#ffffff;stroke-width:0.2;stroke-dasharray:none;stroke-opacity:1"
         x="8.3819427"
         y="50.435341">Mailer</tspan></text></g></svg>
